<svg width="25" height="25" viewBox="0 0 25 25" fill="none" xmlns="http://www.w3.org/2000/svg">
<path d="M5.03348 10.9487C5.53013 8.58259 7.12054 6.61272 9.25781 5.60826C9.4587 5.8817 10.8203 7.77344 12.0871 10.0167C8.51562 10.9654 5.37388 10.9542 5.03348 10.9487ZM17.5558 6.80804C15.6808 5.14509 13.1306 4.51451 10.7143 5.10045C10.9263 5.38504 12.3103 7.2712 13.5603 9.56473C16.2723 8.54353 17.4163 7.00335 17.5558 6.80804ZM7.81808 18.5268C10.0781 20.2902 13.0246 20.5748 15.4799 19.5312C15.3683 18.8616 14.9219 16.529 13.8504 13.75C10.7757 14.7991 8.61607 16.8973 7.81808 18.5268ZM13.3315 12.4888C13.1417 12.0536 12.9297 11.6239 12.7121 11.1942C8.90625 12.3326 5.21205 12.2879 4.87723 12.2768C4.87723 12.3549 4.87165 12.433 4.87165 12.5112C4.87165 14.4699 5.61384 16.2556 6.83036 17.6116C8.0692 15.4967 10.5748 13.2645 13.3315 12.4888ZM15.279 13.3984C16.2779 16.1384 16.6797 18.3705 16.7578 18.8337C18.471 17.6786 19.6875 15.8426 20.0279 13.7221C19.7712 13.6384 17.6674 13.0134 15.279 13.3984ZM14.1462 10.6975C14.4141 11.2444 14.6094 11.6908 14.8158 12.1931C17.3549 11.875 19.8772 12.3828 20.1283 12.4386C20.1116 10.6362 19.4699 8.98438 18.404 7.68973C18.2422 7.90737 16.9643 9.54241 14.1462 10.6975ZM25 2.67857V22.3214C25 23.8002 23.8002 25 22.3214 25H2.67857C1.19978 25 0 23.8002 0 22.3214V2.67857C0 1.19978 1.19978 0 2.67857 0H22.3214C23.8002 0 25 1.19978 25 2.67857ZM21.4286 12.5C21.4286 7.57812 17.4219 3.57143 12.5 3.57143C7.57812 3.57143 3.57143 7.57812 3.57143 12.5C3.57143 17.4219 7.57812 21.4286 12.5 21.4286C17.4219 21.4286 21.4286 17.4219 21.4286 12.5Z" fill="black"/>
</svg>
