<svg width="50" height="51" viewBox="0 0 50 51" fill="none" xmlns="http://www.w3.org/2000/svg">
<path d="M44.447 29.627C44.447 42.1432 28.675 46.777 15.7265 46.777C-0.685221 38.8145 -1.94744 31.1497 1.65943 19.2144C5.17632 7.57696 9.27932 -7.73565 31.5521 4.51434C37.9995 8.81446 44.447 17.1108 44.447 29.627Z" fill="#7BE495"/>
<path d="M50 30.1749C48.55 47.4021 45.8971 51 28.8992 51C21.5879 50.4646 8.69295 48.6271 4.86777 30.1749C3.10938 14.8623 8.69289 5.75193 28.3131 7.51223C41.2616 7.51223 49.4139 19.2827 50 30.1749Z" fill="#205072"/>
<path d="M18.6774 32.351C18.8374 32.4897 19.0347 32.607 19.2694 32.703C19.5041 32.8097 19.7387 32.863 19.9734 32.863C20.2187 32.863 20.4534 32.767 20.6774 32.575C20.9014 32.383 21.0134 32.0523 21.0134 31.583V20.127H23.9254V32.191C23.9254 32.7243 23.8294 33.1777 23.6374 33.551C23.4454 33.935 23.1787 34.239 22.8374 34.463C22.4961 34.6977 22.1014 34.8683 21.6534 34.975C21.2054 35.0923 20.7361 35.151 20.2454 35.151C19.8294 35.151 19.4294 35.103 19.0454 35.007C18.6614 34.911 18.3147 34.7937 18.0054 34.655C17.6961 34.527 17.4294 34.3883 17.2054 34.239L18.6774 32.351ZM27.5267 27.391C27.7507 27.7963 28.0013 28.1483 28.2787 28.447C28.5667 28.7457 28.876 28.975 29.2067 29.135C29.548 29.295 29.9053 29.375 30.2787 29.375C30.6733 29.375 30.9987 29.279 31.2547 29.087C31.5107 28.8843 31.6387 28.6123 31.6387 28.271C31.6387 27.983 31.564 27.7537 31.4147 27.583C31.2653 27.4017 31.0253 27.231 30.6947 27.071C30.364 26.911 29.9267 26.7297 29.3827 26.527C29.116 26.431 28.8067 26.2977 28.4547 26.127C28.1133 25.9563 27.788 25.7377 27.4787 25.471C27.1693 25.1937 26.9133 24.863 26.7107 24.479C26.508 24.0843 26.4067 23.6097 26.4067 23.055C26.4067 22.3937 26.5773 21.823 26.9187 21.343C27.2707 20.863 27.74 20.5003 28.3267 20.255C28.924 19.999 29.5853 19.871 30.3107 19.871C31.0573 19.871 31.7027 19.9937 32.2467 20.239C32.8013 20.4843 33.26 20.7937 33.6227 21.167C33.9853 21.5403 34.2627 21.919 34.4547 22.303L32.3907 23.455C32.2307 23.1883 32.044 22.959 31.8307 22.767C31.628 22.5643 31.3987 22.4097 31.1427 22.303C30.8973 22.1857 30.6307 22.127 30.3427 22.127C29.9587 22.127 29.6653 22.2123 29.4627 22.383C29.26 22.543 29.1587 22.7457 29.1587 22.991C29.1587 23.247 29.2547 23.471 29.4467 23.663C29.6493 23.855 29.932 24.031 30.2947 24.191C30.668 24.351 31.116 24.5217 31.6387 24.703C32.0333 24.8523 32.4013 25.0283 32.7427 25.231C33.084 25.423 33.3827 25.6577 33.6387 25.935C33.9053 26.2123 34.1133 26.5323 34.2627 26.895C34.412 27.2577 34.4867 27.6737 34.4867 28.143C34.4867 28.7083 34.3693 29.215 34.1347 29.663C33.9107 30.1003 33.6013 30.4683 33.2067 30.767C32.8227 31.0657 32.38 31.2897 31.8787 31.439C31.388 31.599 30.8813 31.679 30.3587 31.679C29.6333 31.679 28.956 31.551 28.3267 31.295C27.708 31.0283 27.1693 30.671 26.7107 30.223C26.252 29.775 25.8947 29.2843 25.6387 28.751L27.5267 27.391Z" fill="white"/>
</svg>
