<svg width="25" height="25" viewBox="0 0 25 25" fill="none" xmlns="http://www.w3.org/2000/svg">
<path d="M25 2.67857V22.3214C25 23.8002 23.8002 25 22.3214 25H8.61607C9.16295 24.0848 9.86607 22.7679 10.1451 21.6908C10.3125 21.0491 10.9989 18.4319 10.9989 18.4319C11.4453 19.2857 12.7511 20.0056 14.1406 20.0056C18.2757 20.0056 21.25 16.2054 21.25 11.4844C21.25 6.95871 17.5558 3.57143 12.8013 3.57143C6.88616 3.57143 3.75 7.53906 3.75 11.8638C3.75 13.8728 4.82143 16.3728 6.52902 17.1708C6.79129 17.2935 6.92522 17.2377 6.98661 16.9866C7.03125 16.7969 7.26562 15.865 7.36607 15.4353C7.39955 15.2958 7.38281 15.1786 7.27121 15.0446C6.70759 14.3583 6.25 13.0971 6.25 11.9196C6.25 8.89509 8.53795 5.97098 12.4386 5.97098C15.8036 5.97098 18.1641 8.26451 18.1641 11.5458C18.1641 15.2511 16.2946 17.8181 13.856 17.8181C12.5112 17.8181 11.5067 16.7076 11.8248 15.3404C12.2098 13.7109 12.9576 11.9531 12.9576 10.7757C12.9576 7.81808 8.74442 8.22545 8.74442 12.1708C8.74442 13.3817 9.15179 14.2076 9.15179 14.2076C7.39955 21.6183 7.13728 21.7132 7.5 24.9554L7.62277 25H2.67857C1.19978 25 0 23.8002 0 22.3214V2.67857C0 1.19978 1.19978 0 2.67857 0H22.3214C23.8002 0 25 1.19978 25 2.67857Z" fill="black"/>
</svg>
